<?xml version="1.0" encoding="UTF-8" standalone="no"?>
<!DOCTYPE svg PUBLIC "-//W3C//DTD SVG 1.1//EN" "http://www.w3.org/Graphics/SVG/1.1/DTD/svg11.dtd">
<svg width="100%" height="100%" viewBox="0 0 100 100" version="1.1" xmlns="http://www.w3.org/2000/svg" xmlns:xlink="http://www.w3.org/1999/xlink" xml:space="preserve" xmlns:serif="http://www.serif.com/" style="fill-rule:evenodd;clip-rule:evenodd;stroke-linejoin:round;stroke-miterlimit:2;">
    <g id="Artboard1" transform="matrix(0.1,0,0,0.08,0,0)">
        <rect x="0" y="0" width="1000" height="1250" style="fill:none;"/>
        <g transform="matrix(-10,0,0,12.5,1000,0)">
            <path d="M50,0C77.596,0 100,22.404 100,50C100,77.596 77.596,100 50,100C22.404,100 0,77.596 0,50C0,22.404 22.404,0 50,0ZM54.534,50.034L37.944,33.445C35.633,31.134 35.633,27.381 37.944,25.07C40.255,22.759 44.008,22.759 46.319,25.07L66.478,45.229C66.709,45.4 66.931,45.591 67.141,45.801C69.453,48.113 69.453,51.865 67.141,54.176L46.388,74.93C44.077,77.241 40.324,77.241 38.013,74.93C35.702,72.619 35.702,68.866 38.013,66.555L54.534,50.034Z" style="fill:white;"/>
        </g>
    </g>
</svg>
